# xmcd
#
# Track frame offsets: 
#        150
#        15998
#        34355
#        48225
#        62805
#        78480
#        95008
#        109458
#        125060
#        139855
#        154245
#        168305
#        183738
#        199728
#        210148
#        223358
#        235028
#        247538
#        261455
#        278318
#
# Disc length: 3899 seconds
#
# Revision: 2
# Processed by: cddbd v1.5.2PL0 Copyright (c) Steve Scherf et al.
# Submitted via: ExactAudioCopy v0.99pb5
#
DISCID=1f0f3914
DTITLE=Die Flippers - Mit den Flippers um die Welt
DYEAR=2007
DGENRE=Schlager
TTITLE0=Mit dem Wind um die Welt
TTITLE1=Engel von Lago Maggiore
TTITLE2=Arrivederci Napoli
TTITLE3=Traum von Mykonos
TTITLE4=St. Tropez
TTITLE5=California
TTITLE6=San Francisco
TTITLE7=Die Nacht von Santa-Monica
TTITLE8=Mexico
TTITLE9=Acapulco
TTITLE10=Hey Jamaica Mama
TTITLE11=Die rote Sonne von Barbados
TTITLE12=Mitternacht in Trinidad
TTITLE13=Teufel aus Caracas
TTITLE14=Südamerika
TTITLE15=Hawaii, Hawaii
TTITLE16=Ich hab' Heimweh nach Tahiti
TTITLE17=Himalaya
TTITLE18=Wenn in Petersburg die weißen Rosen blüh'n
TTITLE19=Wenn es Frühling wird in Amsterdam
EXTD=
EXTT0=
EXTT1=
EXTT2=
EXTT3=
EXTT4=
EXTT5=
EXTT6=
EXTT7=
EXTT8=
EXTT9=
EXTT10=
EXTT11=
EXTT12=
EXTT13=
EXTT14=
EXTT15=
EXTT16=
EXTT17=
EXTT18=
EXTT19=
PLAYORDER=
